Coordinates
version=1
nRows=35
nColumns=33
inDegrees=yes

Units are S.I. units (second, meters, Newtons, ...)
Angles are in degrees.

endheader
time	ground_thorax_rot_x	ground_thorax_rot_y	ground_thorax_rot_z	ground_thorax_tx	ground_thorax_ty	ground_thorax_tz	clav_prot_r	clav_elev_r	scapula_abduction_r	scapula_elevation_r	scapula_upward_rot_r	scapula_winging_r	shoulder_elv_r	plane_of_elev_r	axial_rot_r	elbow_flexion_r	pro_sup_r	wrist_flex_r	wrist_dev_r	clav_prot_l	clav_elev_l	scapula_abduction_l	scapula_elevation_l	scapula_upward_rot_l	scapula_winging_l	shoulder_elv_l	plane_of_elev_l	axial_rot_l	elbow_flexion_l	pro_sup_l	wrist_flex_l	wrist_dev_l	
0.3300	14.631420	44.602285	11.623929	-0.003859	1.021036	-0.050813	-37.762502	27.954346	-44.992718	16.897956	45.000000	-22.898188	6.388470	-21.969605	57.531229	80.825577	22.278343	13.542809	-8.921733	26.206067	-37.565726	-45.000000	8.289276	-45.000965	3.932046	56.733046	14.329455	-15.997741	80.886635	48.618861	17.898642	-22.731295	
0.3400	14.575724	44.551388	11.689474	-0.003938	1.021076	-0.050660	-37.721641	27.999391	-44.986553	16.937492	45.000000	-22.860835	6.339070	-21.977937	57.471748	80.875844	22.590755	13.650957	-8.941569	26.202743	-37.551804	-45.000000	8.277216	-45.000655	3.944115	57.079905	14.238310	-16.106851	81.096543	48.370672	17.898986	-22.570703	
0.3500	14.560096	44.512299	11.729211	-0.003999	1.021175	-0.050600	-37.687846	28.033262	-44.977949	16.967855	45.000000	-22.830143	6.345649	-21.985349	57.444750	80.953936	22.781629	13.743549	-8.964369	26.199259	-37.537156	-45.000000	8.264910	-44.999436	3.957280	57.314312	14.185400	-16.180347	81.257299	48.189345	17.899710	-22.472844	
0.3600	14.547542	44.465673	11.770999	-0.004051	1.021220	-0.050516	-37.646381	28.074120	-44.966727	17.004625	45.000000	-22.792271	6.366935	-21.998668	57.414613	81.063634	23.000802	13.865269	-8.997835	26.194807	-37.519271	-45.000000	8.249387	-44.999103	3.973129	57.597908	14.121523	-16.272139	81.458243	47.961149	17.902220	-22.356678	
0.3700	14.552007	44.420757	11.802112	-0.004085	1.021253	-0.050448	-37.604313	28.113821	-44.953713	17.040743	45.000000	-22.753760	6.420138	-22.022635	57.391471	81.210464	23.187482	14.010866	-9.045947	26.190015	-37.500913	-45.000000	8.233392	-44.999024	3.989365	57.882593	14.060062	-16.367503	81.674649	47.710722	17.908615	-22.245392	
0.3800	14.572938	44.382858	11.817502	-0.004088	1.021280	-0.050395	-37.562469	28.150025	-44.937184	17.074271	45.000000	-22.715684	6.502386	-22.067872	57.367189	81.393839	23.346005	14.190584	-9.115436	26.185951	-37.485384	-45.000000	8.219789	-44.999127	4.003064	58.182533	13.993610	-16.475277	81.914310	47.418866	17.922095	-22.127340	
0.3900	14.607970	44.360106	11.810942	-0.004061	1.021319	-0.050352	-37.522428	28.171274	-44.906807	17.096388	45.000000	-22.680091	6.614507	-22.156323	57.329458	81.608194	23.499326	14.434741	-9.219156	26.186728	-37.489092	-45.000000	8.223018	-44.999372	3.999686	58.530827	13.898314	-16.596420	82.188134	47.006618	17.953409	-21.949400	
0.4000	14.651153	44.354952	11.785584	-0.004014	1.021388	-0.050321	-37.485535	28.178286	-44.864915	17.107378	45.000000	-22.648328	6.744659	-22.283963	57.280726	81.841475	23.639109	14.720875	-9.349733	26.191807	-37.508940	-45.000000	8.240413	-44.999448	3.982166	58.907062	13.780134	-16.724343	82.485636	46.503388	18.001355	-21.727336	
0.4100	14.692272	44.359964	11.754137	-0.003962	1.021459	-0.050279	-37.448402	28.176478	-44.812993	17.111808	45.000000	-22.616994	6.884760	-22.444130	57.222906	82.095077	23.785178	15.039486	-9.503372	26.199622	-37.539471	-45.000000	8.267114	-44.999663	3.955172	59.327038	13.637203	-16.860139	82.821214	45.913817	18.065656	-21.462580	
0.4200	14.729092	44.370373	11.724446	-0.003900	1.021521	-0.050233	-37.410491	28.178499	-44.763961	17.119150	45.000000	-22.584870	7.026305	-22.614430	57.170120	82.369294	23.909098	15.344671	-9.664985	26.205500	-37.561753	-45.000000	8.286508	-44.999842	3.935561	59.746854	13.497232	-17.000744	83.182189	45.340140	18.136232	-21.221086	
0.4300	14.762890	44.391816	11.692324	-0.003839	1.021592	-0.050195	-37.374299	28.172981	-44.709069	17.120585	45.000000	-22.554630	7.178551	-22.810665	57.121157	82.666953	24.005117	15.644788	-9.850255	26.211621	-37.585376	-45.000000	8.307104	-44.999994	3.914752	60.174934	13.352867	-17.141047	83.569511	44.766678	18.225867	-20.986029	
0.4400	14.789547	44.416732	11.666908	-0.003780	1.021660	-0.050164	-37.339970	28.173367	-44.663129	17.126118	45.000000	-22.525583	7.328603	-23.007573	57.086171	82.985849	24.053553	15.903586	-10.041913	26.213457	-37.592343	-45.000000	8.313133	-44.999997	3.908696	60.576221	13.228443	-17.279227	83.970885	44.285746	18.318729	-20.816114	
0.4500	14.811460	44.442760	11.647223	-0.003725	1.021718	-0.050136	-37.307248	28.179045	-44.625312	17.135393	45.000000	-22.497338	7.481470	-23.205603	57.061438	83.330725	24.065607	16.136219	-10.243659	26.211393	-37.584506	-45.000000	8.306230	-45.000000	3.915499	60.964454	13.119928	-17.417399	84.394380	43.883807	18.411081	-20.701671	
0.4600	14.828886	44.472557	11.633050	-0.003660	1.021748	-0.050109	-37.276178	28.200578	-44.607087	17.156208	45.000000	-22.469230	7.630007	-23.396202	57.040636	83.700922	24.056081	16.346128	-10.448934	26.204712	-37.558371	-45.000000	8.283260	-45.000000	3.938292	61.343480	13.032749	-17.566283	84.840494	43.578569	18.487615	-20.654276	
0.4700	14.846537	44.510881	11.614093	-0.003597	1.021778	-0.050084	-37.247868	28.221479	-44.592013	17.176129	45.000000	-22.443285	7.783649	-23.598896	57.013299	84.091709	24.052397	16.570817	-10.671542	26.198527	-37.533949	-45.000000	8.261811	-45.000000	3.959362	61.740979	12.943929	-17.716261	85.313789	43.290889	18.554894	-20.615543	
0.4800	14.863748	44.550082	11.595640	-0.003534	1.021795	-0.050060	-37.220510	28.250929	-44.587655	17.202265	45.000000	-22.417379	7.936701	-23.794805	56.985731	84.501628	24.059128	16.795663	-10.896298	26.190638	-37.502423	-45.000000	8.234116	-45.000000	3.986637	62.141751	12.863957	-17.862691	85.810047	43.057895	18.596675	-20.611370	
0.4900	14.883251	44.592404	11.573058	-0.003477	1.021809	-0.050032	-37.194615	28.279492	-44.584265	17.227536	45.000000	-22.392787	8.094360	-23.996323	56.957756	84.933311	24.079273	17.028784	-11.133078	26.183129	-37.472115	-45.000000	8.207485	-45.000000	4.012881	62.557288	12.785887	-17.998799	86.329097	42.872830	18.615835	-20.631193	
0.5000	14.904431	44.637381	11.545665	-0.003425	1.021827	-0.050005	-37.169650	28.302224	-44.575717	17.248293	45.000000	-22.369529	8.258029	-24.209595	56.929389	85.387201	24.113557	17.271929	-11.382608	26.176841	-37.446822	-45.000000	8.185255	-45.000000	4.034938	62.991165	12.705056	-18.120504	86.868735	42.729524	18.613612	-20.669593	
0.5100	14.927709	44.681110	11.512495	-0.003390	1.021863	-0.049975	-37.144003	28.307101	-44.546578	17.255868	45.000000	-22.347353	8.432222	-24.445230	56.902785	85.863376	24.159527	17.532606	-11.648246	26.173437	-37.433166	-45.000000	8.173253	-45.000000	4.046973	63.448949	12.611751	-18.216997	87.427375	42.594925	18.600253	-20.703890	
0.5200	14.953416	44.725498	11.469327	-0.003361	1.021941	-0.049945	-37.117206	28.282647	-44.483602	17.241744	45.000000	-22.326760	8.621414	-24.722724	56.872361	86.363466	24.222435	17.814200	-11.933761	26.174955	-37.439263	-45.000000	8.178612	-45.000000	4.041665	63.945221	12.490949	-18.289234	88.008628	42.473131	18.570666	-20.734937	
0.5300	14.976681	44.768680	11.426486	-0.003352	1.022043	-0.049907	-37.086410	28.239999	-44.394983	17.214715	45.000000	-22.304648	8.817674	-25.027925	56.841503	86.884482	24.299542	18.105049	-12.224372	26.179510	-37.457571	-45.000000	8.194699	-45.000000	4.025651	64.469854	12.353121	-18.342166	88.602299	42.366920	18.524121	-20.769373	
0.5400	14.995701	44.814186	11.387496	-0.003351	1.022164	-0.049867	-37.051551	28.187098	-44.289461	17.180669	45.000000	-22.280056	9.016295	-25.356512	56.804726	87.424925	24.390311	18.396405	-12.512645	26.185902	-37.483250	-45.000000	8.217268	-45.000000	4.003014	65.019340	12.203938	-18.391458	89.207188	42.278339	18.459281	-20.813970	
0.5500	15.004811	44.853026	11.368237	-0.003375	1.022267	-0.049818	-37.009277	28.148036	-44.188939	17.158136	45.000000	-22.248273	9.203317	-25.666799	56.772591	87.978518	24.488103	18.667803	-12.772550	26.189334	-37.496966	-45.000000	8.229331	-45.000000	3.990755	65.561239	12.070658	-18.440264	89.806285	42.210421	18.376123	-20.878387	
0.5600	15.010080	44.902401	11.348846	-0.003398	1.022382	-0.049774	-36.963455	28.101733	-44.075753	17.130687	45.000000	-22.213902	9.390778	-26.002314	56.726478	88.555731	24.612497	18.935865	-13.032360	26.194961	-37.519381	-45.000000	8.249044	-45.000000	3.970736	66.135481	11.930810	-18.502083	90.411600	42.174869	18.264668	-20.954081	
0.5700	15.005218	44.955541	11.343677	-0.003438	1.022479	-0.049728	-36.911484	28.067867	-43.967727	17.113457	45.000000	-22.173491	9.567107	-26.328392	56.678511	89.149202	24.755626	19.187557	-13.274710	26.199246	-37.536289	-45.000000	8.263905	-45.000000	3.955761	66.715182	11.805968	-18.575569	91.008207	42.166254	18.132566	-21.042154	
0.5800	14.991442	45.017446	11.348132	-0.003485	1.022568	-0.049684	-36.856189	28.040247	-43.861994	17.101350	45.000000	-22.129668	9.734308	-26.658328	56.620778	89.759490	24.924654	19.424931	-13.505815	26.203466	-37.552941	-45.000000	8.278532	-45.000000	3.941186	67.310504	11.688584	-18.667088	91.602229	42.186408	17.978680	-21.139899	
0.5900	14.964855	45.069167	11.377355	-0.003562	1.022624	-0.049635	-36.794824	28.036344	-43.773857	17.107903	45.000000	-22.078960	9.884009	-26.946128	56.574041	90.373511	25.103112	19.635834	-13.702236	26.203296	-37.551277	-45.000000	8.277065	-45.000000	3.942723	67.879972	11.597812	-18.759052	92.178402	42.219764	17.816133	-21.246296	
0.6000	14.934155	45.131945	11.405970	-0.003645	1.022694	-0.049591	-36.734680	28.023404	-43.677418	17.107458	45.000000	-22.029935	10.033618	-27.251981	56.514997	91.001285	25.317384	19.842755	-13.898387	26.205999	-37.561329	-45.000000	8.285906	-45.000000	3.933998	68.477399	11.498550	-18.860643	92.754143	42.274829	17.634939	-21.343993	
0.6100	14.897298	45.180336	11.450638	-0.003754	1.022757	-0.049542	-36.671206	28.019806	-43.586429	17.114527	45.000000	-21.977614	10.174997	-27.521925	56.468445	91.626475	25.548147	20.029773	-14.065152	26.206234	-37.561691	-45.000000	8.286240	-45.000000	3.933730	69.050762	11.411608	-18.951009	93.314876	42.334062	17.448549	-21.434351	
0.6200	14.859053	45.227500	11.496436	-0.003876	1.022845	-0.049494	-36.608968	28.000581	-43.480034	17.109603	45.000000	-21.927577	10.320759	-27.801333	56.411688	92.259361	25.836252	20.197809	-14.214861	26.208873	-37.572574	-45.000000	8.295909	-45.000000	3.924059	69.636092	11.309360	-19.040114	93.874315	42.418146	17.236777	-21.505553	
0.6300	14.818982	45.256128	11.552571	-0.004025	1.022948	-0.049441	-36.544452	27.976591	-43.365231	17.101467	45.000000	-21.876113	10.466720	-28.056289	56.363014	92.889776	26.155690	20.343770	-14.336883	26.210793	-37.580694	-45.000000	8.303140	-45.000000	3.916487	70.195848	11.206074	-19.105090	94.418953	42.508208	17.016813	-21.559208	
0.6400	14.778832	45.290818	11.602959	-0.004177	1.023080	-0.049390	-36.483051	27.933512	-43.233669	17.078547	45.000000	-21.828802	10.617598	-28.332986	56.296383	93.529674	26.524118	20.475846	-14.453552	26.216228	-37.603549	-45.000000	8.323296	-45.000000	3.896076	70.771261	11.086975	-19.165040	94.960312	42.613599	16.784025	-21.592248	
0.6500	14.735104	45.312556	11.666147	-0.004343	1.023203	-0.049338	-36.420667	27.903386	-43.114542	17.065591	45.000000	-21.779832	10.758751	-28.570520	56.238516	94.160631	26.884197	20.589357	-14.547995	26.218397	-37.613146	-45.000000	8.331686	-45.000000	3.887389	71.305643	10.987741	-19.203736	95.480105	42.698391	16.573878	-21.619412	
0.6600	14.687267	45.341477	11.731059	-0.004505	1.023315	-0.049289	-36.362759	27.881935	-43.010788	17.058478	45.000000	-21.734064	10.889608	-28.795991	56.170184	94.794934	27.261572	20.682442	-14.625129	26.219618	-37.618723	-45.000000	8.336530	-45.000000	3.882455	71.830117	10.903502	-19.240548	95.988647	42.769416	16.381168	-21.635859	
0.6700	14.637164	45.361631	11.804321	-0.004676	1.023400	-0.049243	-36.306365	27.883440	-42.933986	17.068424	45.000000	-21.687926	11.006841	-28.969728	56.114842	95.422071	27.626473	20.758201	-14.678518	26.216549	-37.606290	-45.000000	8.325458	-45.000000	3.893372	72.308734	10.852271	-19.255109	96.475864	42.804704	16.222743	-21.649767	
